<?xml version="1.0" encoding="utf-8"?>
<!-- Generator: Adobe Illustrator 19.1.0, SVG Export Plug-In . SVG Version: 6.00 Build 0)  -->
<svg version="1.1" id="nord-coda-banner" xmlns="http://www.w3.org/2000/svg" xmlns:xlink="http://www.w3.org/1999/xlink" x="0px"
	 y="0px" viewBox="0 0 195.2 48" style="enable-background:new 0 0 195.2 48;" xml:space="preserve">
<style type="text/css">
	.st0{fill:#2E3440;}
	.st1{fill:#88C0D0;}
	.st2{opacity:5.000000e-02;enable-background:new    ;}
	.st3{opacity:0.1;enable-background:new    ;}
	.st4{opacity:0.2;enable-background:new    ;}
	.st5{fill:#434C5E;}
	.st6{fill:#3B4252;}
	.st7{fill:#81A1C1;}
</style>
<g>
	<path class="st0" d="M111.8,14.6c0.7,0,1.4,0.1,2.1,0.2c0.7,0.1,1.2,0.4,1.8,0.7c0.5,0.3,0.9,0.8,1.2,1.3c0.3,0.5,0.5,1.2,0.5,2
		c0,0.4-0.1,0.9-0.2,1.3c-0.1,0.4-0.3,0.8-0.6,1.2c-0.3,0.3-0.6,0.6-0.9,0.9c-0.4,0.2-0.8,0.4-1.2,0.5v0c1.1,0.1,2,0.6,2.6,1.4
		c0.7,0.8,1,1.7,1,2.8c0,0.3,0,0.6-0.1,0.9c0,0.3-0.1,0.7-0.3,1.1c-0.1,0.4-0.4,0.7-0.6,1.1c-0.3,0.4-0.6,0.7-1.1,0.9
		c-0.5,0.3-1,0.5-1.7,0.6c-0.7,0.2-1.5,0.3-2.4,0.3h-7.2V14.6H111.8z M111.8,22.1c0.7,0,1.2-0.1,1.7-0.2c0.5-0.2,0.9-0.4,1.2-0.6
		c0.3-0.3,0.6-0.6,0.7-0.9c0.2-0.4,0.2-0.7,0.2-1.1c0-2.1-1.3-3.2-3.9-3.2h-5.6v6.1H111.8z M111.8,30.3c0.6,0,1.2-0.1,1.7-0.2
		c0.5-0.1,1-0.3,1.4-0.6c0.4-0.3,0.7-0.6,1-1.1c0.2-0.5,0.4-1,0.4-1.7c0-1.1-0.4-1.9-1.2-2.5c-0.8-0.6-1.9-0.8-3.3-0.8h-5.6v6.8
		H111.8z"/>
	<path class="st0" d="M121.7,19.3v2.9h0c0.4-1,1-1.8,1.8-2.3c0.8-0.5,1.8-0.8,2.9-0.7v1.5c-0.7,0-1.3,0.1-1.9,0.3
		c-0.6,0.2-1,0.5-1.5,0.9c-0.4,0.4-0.7,0.9-0.9,1.4c-0.2,0.6-0.3,1.2-0.3,1.8v6.6h-1.5V19.3H121.7z"/>
	<path class="st0" d="M128.1,21.2c0.3-0.5,0.6-1,1-1.3c0.4-0.3,1-0.6,1.5-0.7c0.6-0.2,1.2-0.2,2-0.2c0.5,0,1.1,0.1,1.6,0.2
		c0.5,0.1,1,0.3,1.5,0.6c0.4,0.3,0.8,0.7,1.1,1.2c0.3,0.5,0.4,1.2,0.4,2v6.6c0,0.6,0.3,0.9,0.9,0.9c0.2,0,0.3,0,0.5-0.1v1.3
		c-0.2,0-0.3,0.1-0.5,0.1c-0.1,0-0.3,0-0.5,0c-0.4,0-0.7-0.1-0.9-0.2c-0.2-0.1-0.4-0.3-0.5-0.4c-0.1-0.2-0.2-0.4-0.3-0.7
		c0-0.3-0.1-0.6-0.1-0.9h0c-0.3,0.4-0.5,0.8-0.8,1.1c-0.3,0.3-0.6,0.6-0.9,0.8c-0.3,0.2-0.7,0.4-1.2,0.5c-0.4,0.1-1,0.2-1.6,0.2
		c-0.6,0-1.1-0.1-1.6-0.2c-0.5-0.1-0.9-0.4-1.3-0.6c-0.4-0.3-0.7-0.7-0.9-1.1c-0.2-0.5-0.3-1-0.3-1.6c0-0.9,0.2-1.5,0.6-2
		c0.4-0.5,0.9-0.9,1.5-1.1c0.6-0.3,1.3-0.4,2.1-0.5c0.8-0.1,1.6-0.2,2.4-0.3c0.3,0,0.6-0.1,0.8-0.1c0.2,0,0.4-0.1,0.6-0.3
		c0.2-0.1,0.3-0.3,0.4-0.5s0.1-0.5,0.1-0.8c0-0.5-0.1-0.9-0.3-1.3c-0.2-0.3-0.4-0.6-0.7-0.8c-0.3-0.2-0.6-0.3-1-0.4
		c-0.4-0.1-0.8-0.1-1.3-0.1c-1,0-1.7,0.2-2.4,0.7c-0.6,0.5-0.9,1.2-1,2.2h-1.5C127.7,22.4,127.9,21.8,128.1,21.2z M135.7,24.9
		c-0.1,0.2-0.3,0.3-0.6,0.4c-0.3,0.1-0.5,0.1-0.7,0.2c-0.6,0.1-1.3,0.2-2,0.3c-0.7,0.1-1.3,0.2-1.9,0.4c-0.6,0.2-1,0.4-1.4,0.8
		c-0.4,0.3-0.5,0.8-0.5,1.4c0,0.4,0.1,0.7,0.2,1c0.2,0.3,0.4,0.6,0.6,0.8c0.3,0.2,0.6,0.4,0.9,0.5c0.3,0.1,0.7,0.2,1,0.2
		c0.6,0,1.1-0.1,1.7-0.3c0.5-0.2,1-0.4,1.4-0.8c0.4-0.3,0.7-0.7,0.9-1.2c0.2-0.5,0.3-1,0.3-1.6L135.7,24.9L135.7,24.9z"/>
	<path class="st0" d="M147.9,21c-0.6-0.5-1.3-0.8-2.4-0.8c-0.7,0-1.4,0.2-1.9,0.5c-0.5,0.3-1,0.7-1.4,1.2c-0.4,0.5-0.6,1.1-0.8,1.7
		c-0.2,0.6-0.3,1.3-0.3,1.9c0,0.7,0.1,1.3,0.3,1.9c0.2,0.6,0.5,1.2,0.8,1.7c0.4,0.5,0.8,0.9,1.4,1.2c0.5,0.3,1.2,0.5,1.9,0.5
		c0.5,0,0.9-0.1,1.3-0.3c0.4-0.2,0.8-0.4,1.1-0.7c0.3-0.3,0.6-0.7,0.8-1.1c0.2-0.4,0.3-0.9,0.4-1.4h1.5c-0.2,1.5-0.8,2.7-1.7,3.5
		c-0.9,0.8-2,1.3-3.5,1.3c-0.9,0-1.8-0.2-2.5-0.5c-0.7-0.3-1.3-0.8-1.8-1.4c-0.5-0.6-0.9-1.3-1.1-2.1c-0.3-0.8-0.4-1.6-0.4-2.5
		c0-0.9,0.1-1.7,0.4-2.5c0.3-0.8,0.6-1.5,1.1-2.1c0.5-0.6,1.1-1.1,1.8-1.4c0.7-0.4,1.6-0.5,2.5-0.5c1.3,0,2.5,0.4,3.4,1.1
		c0.9,0.7,1.5,1.8,1.6,3.2H149C148.8,22.3,148.4,21.6,147.9,21z"/>
	<path class="st0" d="M154.2,14.6v10.8l6.9-6h2l-5.3,4.6l5.6,7.8h-1.9l-4.9-6.7l-2.4,2v4.7h-1.5V14.6H154.2z"/>
	<path class="st0" d="M165.8,27.6c0.2,0.6,0.4,1.1,0.7,1.6c0.3,0.5,0.8,0.8,1.3,1.2c0.5,0.3,1.1,0.5,1.8,0.5c1.1,0,2-0.3,2.6-0.9
		c0.6-0.6,1.1-1.3,1.3-2.3h1.5c-0.3,1.4-0.9,2.5-1.8,3.3c-0.9,0.8-2.1,1.2-3.6,1.2c-1,0-1.8-0.2-2.5-0.5c-0.7-0.3-1.3-0.8-1.7-1.4
		c-0.4-0.6-0.8-1.3-1-2.1c-0.2-0.8-0.3-1.6-0.3-2.5c0-0.8,0.1-1.6,0.3-2.4c0.2-0.8,0.5-1.5,1-2.1c0.4-0.6,1-1.1,1.7-1.5
		c0.7-0.4,1.6-0.6,2.5-0.6c1,0,1.8,0.2,2.5,0.6c0.7,0.4,1.3,0.9,1.7,1.6c0.4,0.6,0.8,1.4,0.9,2.2c0.2,0.8,0.3,1.7,0.2,2.6h-9.5
		C165.6,26.5,165.7,27,165.8,27.6z M173.3,23c-0.2-0.5-0.4-1-0.8-1.4c-0.3-0.4-0.7-0.7-1.2-1c-0.5-0.2-1-0.4-1.6-0.4
		c-0.6,0-1.2,0.1-1.7,0.4c-0.5,0.2-0.9,0.6-1.2,1c-0.3,0.4-0.6,0.9-0.8,1.4c-0.2,0.5-0.3,1.1-0.4,1.6h8
		C173.6,24.1,173.5,23.5,173.3,23z"/>
	<path class="st0" d="M182.1,19.3v1.3h-2.5V29c0,0.5,0.1,0.9,0.2,1.2c0.1,0.3,0.5,0.4,1,0.5c0.4,0,0.9,0,1.3-0.1v1.3
		c-0.2,0-0.4,0-0.7,0c-0.2,0-0.4,0-0.7,0c-1,0-1.7-0.2-2.1-0.6c-0.4-0.4-0.6-1.1-0.6-2.2v-8.5h-2.2v-1.3h2.2v-3.7h1.5v3.7H182.1z"/>
	<path class="st0" d="M191.4,21.7c-0.2-0.3-0.4-0.6-0.7-0.9c-0.3-0.2-0.6-0.4-1-0.5c-0.4-0.1-0.8-0.2-1.2-0.2c-0.3,0-0.7,0-1,0.1
		c-0.3,0.1-0.7,0.2-0.9,0.4c-0.3,0.2-0.5,0.4-0.7,0.7c-0.2,0.3-0.3,0.6-0.3,1c0,0.3,0.1,0.6,0.3,0.9c0.2,0.2,0.4,0.4,0.6,0.6
		c0.3,0.2,0.5,0.3,0.8,0.4c0.3,0.1,0.6,0.2,0.8,0.3l2,0.5c0.4,0.1,0.9,0.2,1.3,0.3c0.4,0.2,0.8,0.4,1.1,0.7c0.3,0.3,0.6,0.6,0.8,1
		c0.2,0.4,0.3,0.9,0.3,1.4c0,0.7-0.2,1.2-0.5,1.7c-0.3,0.5-0.7,0.9-1.2,1.2c-0.5,0.3-1,0.5-1.6,0.6c-0.6,0.1-1.2,0.2-1.8,0.2
		c-1.5,0-2.6-0.3-3.5-1c-0.9-0.7-1.4-1.8-1.5-3.3h1.5c0.1,1,0.4,1.8,1.1,2.3c0.7,0.5,1.5,0.8,2.5,0.8c0.4,0,0.7,0,1.1-0.1
		c0.4-0.1,0.8-0.2,1.1-0.4c0.3-0.2,0.6-0.4,0.8-0.7c0.2-0.3,0.3-0.7,0.3-1.1c0-0.4-0.1-0.7-0.2-0.9c-0.2-0.2-0.4-0.5-0.6-0.6
		c-0.3-0.2-0.5-0.3-0.9-0.4c-0.3-0.1-0.7-0.2-1-0.3l-1.9-0.4c-0.5-0.1-1-0.3-1.4-0.4c-0.4-0.2-0.8-0.4-1.1-0.6
		c-0.3-0.2-0.6-0.6-0.7-0.9c-0.2-0.4-0.3-0.8-0.3-1.3c0-0.6,0.1-1.2,0.4-1.6c0.3-0.4,0.6-0.8,1.1-1.1c0.4-0.3,0.9-0.5,1.5-0.6
		c0.6-0.1,1.1-0.2,1.6-0.2c0.6,0,1.2,0.1,1.7,0.2c0.5,0.2,1,0.4,1.4,0.7c0.4,0.3,0.7,0.8,1,1.2c0.2,0.5,0.4,1.1,0.4,1.8h-1.5
		C191.7,22.5,191.6,22.1,191.4,21.7z"/>
</g>
<g id="text">
	<path class="st1" d="M53.9,15.7h0.7l10.7,15.2h0V15.7h0.4v15.7h-0.7L54.3,16.2h0v15.2h-0.4V15.7z"/>
	<path class="st1" d="M72.7,19.8c3.3,0,5.1,2.8,5.1,5.9c0,3.1-1.8,5.9-5.1,5.9c-3.3,0-5.1-2.8-5.1-5.9
		C67.5,22.6,69.3,19.8,72.7,19.8z M72.7,31.2c3,0,4.6-2.6,4.6-5.5c0-2.8-1.6-5.5-4.6-5.5c-3.1,0-4.7,2.7-4.7,5.5
		C68,28.6,69.6,31.2,72.7,31.2z"/>
	<path class="st1" d="M80,31.4h-0.4V20.1H80v2.8h0c0.4-1.7,1.7-3.1,4.4-3.1v0.4C81.4,20.1,80,22.5,80,25V31.4z"/>
	<path class="st1" d="M94.1,15.7h0.4v15.7h-0.4v-3.2h0c-0.6,2-2.2,3.4-4.5,3.4c-3,0-4.8-2.5-4.8-5.9c0-3.2,1.7-5.9,4.8-5.9
		c2.4,0,4,1.4,4.5,3.4h0V15.7z M89.5,20.2c-3.1,0-4.4,2.9-4.4,5.5c0,2.9,1.5,5.5,4.4,5.5c2.9,0,4.6-2.5,4.6-5.5
		C94.1,22.3,92.2,20.2,89.5,20.2z"/>
</g>
<g id="icon">
	<g id="base_1_">
		<g id="base-shades_1_">
			<path id="base-shade-back_1_" class="st2" d="M36.1,4.1C42,8.2,46,15.1,46,23c0,12.7-10.3,23-23,23C15.1,46,8.2,42,4.1,36.1
				c1.1,1.9,2.4,3.6,3.9,5.1c4.2,3.8,9.7,6.1,15.8,6.1c13,0,23.5-10.5,23.5-23.5c0-6.1-2.3-11.6-6.1-15.8
				C39.6,6.4,37.9,5.1,36.1,4.1z M41.1,7.9c3.9,4.2,6.4,9.8,6.4,16.1C47.5,37,37,47.5,24,47.5c-6.2,0-11.9-2.4-16.1-6.4
				C12.2,45.4,18,48,24.5,48C37.5,48,48,37.5,48,24.5C48,18,45.4,12.2,41.1,7.9z"/>
			<path id="base-shade-middle_1_" class="st3" d="M41.1,7.9c3.8,4.2,6.1,9.7,6.1,15.8c0,13-10.5,23.5-23.5,23.5
				c-6.1,0-11.6-2.3-15.8-6.1c4.2,3.9,9.8,6.4,16.1,6.4C37,47.5,47.5,37,47.5,24C47.5,17.8,45.1,12.1,41.1,7.9z"/>
			<path id="base-shade-front_1_" class="st4" d="M30.9,1.4C39.7,4.6,46,13.1,46,23c0,12.7-10.3,23-23,23c-9.9,0-18.4-6.3-21.6-15.1
				C5.4,43.2,18.7,50,31,46c9.6-3.1,16.2-12.1,16.2-22.2C47.2,13.5,40.6,4.5,30.9,1.4L30.9,1.4z"/>
		</g>
		<path id="base-background_1_" class="st0" d="M23.5,0C36.5,0,47,10.5,47,23.5C47,36.5,36.5,47,23.5,47C10.5,47,0,36.5,0,23.5
			C0,10.5,10.5,0,23.5,0z"/>
		<path id="base-background-shade_1_" class="st3" d="M39.9,6.7c3.8,4.2,6.1,9.7,6.1,15.8C46,35.4,35.4,46,22.5,46
			c-6.1,0-11.6-2.3-15.8-6.1c4.3,4.4,10.2,7.1,16.8,7.1C36.5,47,47,36.5,47,23.5C47,16.9,44.2,10.9,39.9,6.7z"/>
	</g>
	<path class="st5" d="M38.5,32.5c0,3.3-2.7,6-6,6h-18c-3.3,0-6-2.7-6-6v-18c0-3.3,2.7-6,6-6h18c3.3,0,6,2.7,6,6V32.5z"/>
	<path class="st6" d="M32.5,11.8c1.5,0,2.7,1.2,2.7,2.7v15c0,1.5-1.2,2.7-2.7,2.7h-18c-1.5,0-2.7-1.2-2.7-2.7v-15
		c0-1.5,1.2-2.7,2.7-2.7H32.5"/>
	<path class="st1" d="M32.5,11.8c1.5,0,2.7,1.2,2.7,2.7v15c0,1.5-1.2,2.7-2.7,2.7h-18c-1.5,0-2.7-1.2-2.7-2.7v-15
		c0-1.5,1.2-2.7,2.7-2.7H32.5L32.5,11.8z M32.5,8.5h-18c-3.3,0-6,2.7-6,6v15c0,3.3,2.7,6,6,6h18c3.3,0,6-2.7,6-6v-15
		C38.5,11.2,35.8,8.5,32.5,8.5z"/>
	<g>
		<g>
			<polygon class="st7" points="31.9,14.8 31.9,29.2 24.4,29.2 24.4,25.6 28.6,25.6 28.6,18.1 24.4,18.1 24.4,14.8 			"/>
		</g>
		<g>
			<polygon class="st7" points="22.6,14.8 22.6,18.1 18.4,18.1 18.4,25.6 22.6,25.6 22.6,29.2 15.1,29.2 15.1,14.8 			"/>
		</g>
	</g>
</g>
<g>
</g>
<g>
</g>
<g>
</g>
<g>
</g>
<g>
</g>
<g>
</g>
</svg>
