<?xml version="1.0" encoding="utf-8"?>
<!-- Generator: Adobe Illustrator 19.1.0, SVG Export Plug-In . SVG Version: 6.00 Build 0)  -->
<svg version="1.1" id="nord-visual-studio-code-banner"
	 xmlns="http://www.w3.org/2000/svg" xmlns:xlink="http://www.w3.org/1999/xlink" x="0px" y="0px" width="888px" height="200px"
	 viewBox="0 0 888 200" style="enable-background:new 0 0 888 200;" xml:space="preserve">
<style type="text/css">
	.st0{fill:#88C0D0;}
	.st1{fill:#2E3440;}
</style>
<g id="text">
	<path class="st0" d="M324.892,149.552h1.38l22.451,31.697h0.092v-31.697h0.92v32.848h-1.38l-22.45-31.697h-0.092v31.697h-0.92
		V149.552z"/>
	<path class="st0" d="M364.176,158.2c6.901,0,10.627,5.936,10.627,12.375c0,6.486-3.726,12.375-10.673,12.375
		c-6.901,0-10.627-5.889-10.627-12.375C353.503,164.136,357.229,158.2,364.176,158.2z M364.176,182.03
		c6.303,0,9.707-5.475,9.707-11.455c0-5.889-3.404-11.455-9.707-11.455c-6.395,0-9.753,5.566-9.753,11.455
		C354.423,176.556,357.781,182.03,364.176,182.03z"/>
	<path class="st0" d="M379.539,182.399h-0.92v-23.646h0.92v5.842h0.092c0.874-3.496,3.634-6.578,9.293-6.395v0.92
		c-6.487-0.322-9.385,4.738-9.385,9.891V182.399z"/>
	<path class="st0" d="M408.935,149.552h0.92v32.848h-0.92v-6.625h-0.092c-1.196,4.141-4.646,7.176-9.477,7.176
		c-6.257,0-10.075-5.197-10.075-12.328c0-6.625,3.542-12.422,10.075-12.422c5.015,0,8.373,2.898,9.477,7.178h0.092V149.552z
		 M399.366,159.12c-6.487,0-9.155,6.027-9.155,11.502c0,6.072,3.037,11.408,9.155,11.408c6.073,0,9.569-5.289,9.569-11.408
		C408.935,163.308,405.116,159.12,399.366,159.12z"/>
</g>
<g id="logo">
	<polygon id="character-half-right" class="st1" points="466.56,122.64 423.169,67.095 423.169,51.685 471.26,113.854 
		497.103,113.854 497.103,26.31 453.639,26.31 444.242,16.911 506.5,16.911 506.5,122.64 	"/>
	<polygon id="character-half-left" class="st1" points="421.44,16.911 464.834,72.452 464.834,87.862 416.741,25.694 
		390.899,25.694 390.899,113.239 434.362,113.239 443.762,122.64 381.5,122.64 381.5,16.911 	"/>
</g>
<g>
	<path class="st1" d="M444.534,148.88c1.394,0,2.731,0.132,4.017,0.395c1.284,0.263,2.414,0.712,3.39,1.346
		c0.975,0.635,1.756,1.471,2.344,2.508s0.883,2.329,0.883,3.877c0,0.866-0.14,1.71-0.418,2.53s-0.673,1.563-1.184,2.229
		c-0.511,0.666-1.114,1.23-1.812,1.694c-0.696,0.465-1.479,0.79-2.345,0.976v0.093c2.136,0.278,3.838,1.153,5.107,2.623
		c1.27,1.471,1.904,3.289,1.904,5.456c0,0.526-0.047,1.122-0.14,1.787c-0.093,0.666-0.278,1.347-0.558,2.043
		c-0.278,0.696-0.681,1.386-1.207,2.066s-1.23,1.276-2.112,1.787s-1.966,0.929-3.25,1.254c-1.285,0.325-2.825,0.487-4.62,0.487
		h-14.022v-33.15H444.534z M444.534,163.412c1.27,0,2.368-0.146,3.297-0.441c0.929-0.294,1.702-0.696,2.321-1.207
		s1.083-1.106,1.393-1.787s0.465-1.408,0.465-2.183c0-4.147-2.492-6.222-7.476-6.222h-10.865v11.84H444.534z M444.534,179.337
		c1.176,0,2.29-0.1,3.343-0.302c1.053-0.2,1.98-0.564,2.786-1.091c0.805-0.525,1.439-1.23,1.903-2.112
		c0.465-0.882,0.697-1.988,0.697-3.32c0-2.136-0.751-3.737-2.252-4.805c-1.502-1.068-3.661-1.603-6.478-1.603h-10.865v13.232
		H444.534z"/>
	<path class="st1" d="M463.616,158.072v5.618h0.094c0.742-1.95,1.896-3.451,3.459-4.504c1.562-1.052,3.428-1.532,5.595-1.439v2.926
		c-1.332-0.062-2.539,0.116-3.622,0.533c-1.084,0.418-2.02,1.015-2.809,1.788c-0.789,0.774-1.401,1.694-1.834,2.763
		c-0.434,1.067-0.65,2.236-0.65,3.505v12.769h-2.925v-23.958H463.616z"/>
	<path class="st1" d="M476.152,161.787c0.495-1.021,1.168-1.857,2.02-2.508c0.852-0.649,1.85-1.129,2.995-1.438
		c1.145-0.31,2.414-0.465,3.807-0.465c1.053,0,2.104,0.101,3.157,0.302c1.053,0.202,1.997,0.58,2.833,1.138
		c0.835,0.557,1.516,1.339,2.042,2.345s0.79,2.314,0.79,3.923v12.722c0,1.177,0.572,1.765,1.718,1.765
		c0.34,0,0.649-0.062,0.929-0.186v2.461c-0.341,0.062-0.643,0.108-0.905,0.139c-0.264,0.031-0.597,0.047-0.999,0.047
		c-0.742,0-1.339-0.101-1.787-0.302c-0.449-0.201-0.797-0.487-1.045-0.859c-0.248-0.371-0.41-0.812-0.487-1.323
		s-0.116-1.075-0.116-1.694h-0.093c-0.526,0.774-1.061,1.463-1.602,2.066c-0.542,0.604-1.146,1.106-1.811,1.509
		c-0.666,0.402-1.425,0.712-2.275,0.929c-0.852,0.216-1.865,0.325-3.041,0.325c-1.114,0-2.159-0.133-3.134-0.396
		c-0.976-0.262-1.827-0.68-2.554-1.253c-0.728-0.572-1.301-1.3-1.718-2.183c-0.418-0.882-0.627-1.927-0.627-3.134
		c0-1.672,0.371-2.979,1.114-3.923c0.742-0.944,1.725-1.664,2.948-2.159c1.223-0.495,2.6-0.843,4.132-1.045
		c1.532-0.201,3.088-0.395,4.666-0.58c0.619-0.062,1.161-0.14,1.625-0.232c0.465-0.093,0.852-0.256,1.161-0.487
		c0.309-0.232,0.549-0.55,0.72-0.952c0.17-0.401,0.255-0.929,0.255-1.578c0-0.99-0.162-1.803-0.487-2.438s-0.773-1.138-1.347-1.51
		c-0.572-0.371-1.238-0.626-1.996-0.766c-0.759-0.14-1.571-0.209-2.438-0.209c-1.857,0-3.374,0.441-4.55,1.323
		c-1.177,0.882-1.796,2.298-1.857,4.248h-2.925C475.363,164.016,475.657,162.809,476.152,161.787z M490.777,168.938
		c-0.186,0.341-0.542,0.588-1.067,0.742c-0.526,0.155-0.991,0.264-1.393,0.325c-1.239,0.217-2.516,0.411-3.831,0.58
		c-1.315,0.171-2.515,0.426-3.599,0.767c-1.083,0.341-1.973,0.828-2.669,1.462c-0.696,0.636-1.045,1.541-1.045,2.717
		c0,0.743,0.146,1.4,0.441,1.973c0.293,0.573,0.688,1.068,1.184,1.486s1.067,0.735,1.718,0.952s1.315,0.324,1.997,0.324
		c1.114,0,2.182-0.17,3.203-0.511c1.021-0.34,1.911-0.835,2.67-1.485c0.758-0.65,1.361-1.439,1.811-2.368
		c0.448-0.929,0.673-1.98,0.673-3.157v-3.807H490.777z"/>
	<path class="st1" d="M514.317,161.369c-1.084-1.021-2.601-1.532-4.55-1.532c-1.394,0-2.616,0.295-3.668,0.882
		c-1.053,0.589-1.928,1.362-2.624,2.321c-0.696,0.96-1.223,2.052-1.578,3.273c-0.356,1.224-0.534,2.469-0.534,3.738
		s0.178,2.515,0.534,3.737c0.355,1.223,0.882,2.314,1.578,3.273c0.696,0.96,1.571,1.733,2.624,2.321
		c1.052,0.588,2.274,0.882,3.668,0.882c0.896,0,1.748-0.17,2.553-0.511c0.805-0.34,1.517-0.812,2.136-1.416s1.13-1.323,1.532-2.159
		c0.402-0.835,0.65-1.748,0.743-2.739h2.925c-0.402,2.91-1.47,5.178-3.203,6.803c-1.734,1.625-3.963,2.438-6.686,2.438
		c-1.827,0-3.444-0.333-4.853-0.999c-1.409-0.665-2.593-1.57-3.552-2.716c-0.96-1.145-1.688-2.484-2.183-4.016
		c-0.495-1.532-0.742-3.165-0.742-4.898s0.247-3.366,0.742-4.898s1.223-2.871,2.183-4.017c0.959-1.145,2.143-2.058,3.552-2.739
		c1.408-0.681,3.025-1.021,4.853-1.021c2.568,0,4.742,0.682,6.522,2.043c1.78,1.362,2.84,3.421,3.181,6.175h-2.925
		C516.144,163.8,515.4,162.391,514.317,161.369z"/>
	<path class="st1" d="M526.668,148.88v20.8l13.278-11.607h3.9l-10.215,8.868l10.911,15.09h-3.668l-9.472-13.047l-4.735,3.946v9.101
		h-2.926v-33.15H526.668z"/>
	<path class="st1" d="M549.116,174.114c0.294,1.13,0.767,2.144,1.416,3.041c0.65,0.898,1.47,1.641,2.461,2.229
		c0.99,0.588,2.183,0.882,3.575,0.882c2.136,0,3.808-0.557,5.015-1.671s2.043-2.601,2.507-4.457h2.926
		c-0.62,2.724-1.758,4.828-3.413,6.314c-1.656,1.485-4.001,2.229-7.034,2.229c-1.888,0-3.521-0.333-4.898-0.999
		c-1.378-0.665-2.5-1.578-3.366-2.739c-0.867-1.16-1.509-2.507-1.927-4.039s-0.627-3.149-0.627-4.852
		c0-1.579,0.209-3.126,0.627-4.644c0.418-1.516,1.06-2.87,1.927-4.062c0.866-1.191,1.988-2.151,3.366-2.879
		c1.377-0.727,3.011-1.091,4.898-1.091c1.919,0,3.56,0.388,4.922,1.161c1.361,0.773,2.468,1.787,3.319,3.041
		s1.463,2.692,1.834,4.317c0.372,1.625,0.526,3.273,0.465,4.945h-18.433C548.676,171.894,548.822,172.984,549.116,174.114z
		 M563.603,165.177c-0.356-1.021-0.858-1.928-1.509-2.717s-1.439-1.423-2.368-1.903c-0.929-0.479-1.981-0.72-3.157-0.72
		c-1.207,0-2.274,0.24-3.203,0.72c-0.929,0.48-1.719,1.114-2.368,1.903c-0.65,0.789-1.169,1.703-1.556,2.739
		c-0.388,1.038-0.643,2.098-0.766,3.181h15.507C564.152,167.266,563.958,166.197,563.603,165.177z"/>
	<path class="st1" d="M580.572,158.072v2.461h-4.875v16.157c0,0.96,0.132,1.711,0.395,2.252c0.263,0.542,0.921,0.844,1.974,0.905
		c0.836,0,1.671-0.046,2.507-0.139v2.461c-0.434,0-0.867,0.015-1.3,0.046c-0.434,0.03-0.867,0.047-1.3,0.047
		c-1.95,0-3.312-0.379-4.086-1.138c-0.774-0.758-1.146-2.159-1.114-4.202v-16.39h-4.179v-2.461h4.179v-7.196h2.925v7.196H580.572z"
		/>
	<path class="st1" d="M598.587,162.738c-0.341-0.665-0.797-1.214-1.369-1.647c-0.573-0.434-1.23-0.751-1.974-0.952
		s-1.532-0.302-2.368-0.302c-0.649,0-1.308,0.069-1.973,0.209c-0.666,0.14-1.277,0.371-1.834,0.696
		c-0.558,0.325-1.007,0.751-1.347,1.277c-0.341,0.526-0.511,1.176-0.511,1.949c0,0.65,0.162,1.2,0.487,1.648
		c0.325,0.449,0.735,0.829,1.23,1.138c0.495,0.31,1.037,0.565,1.625,0.766c0.588,0.202,1.13,0.364,1.625,0.488l3.9,0.882
		c0.836,0.124,1.663,0.349,2.483,0.673c0.82,0.325,1.548,0.751,2.183,1.277c0.634,0.526,1.152,1.177,1.556,1.95
		c0.401,0.773,0.604,1.688,0.604,2.739c0,1.3-0.295,2.407-0.883,3.319c-0.588,0.914-1.339,1.656-2.251,2.229
		c-0.914,0.573-1.943,0.982-3.088,1.23c-1.146,0.248-2.275,0.372-3.39,0.372c-2.816,0-5.1-0.666-6.849-1.997
		c-1.749-1.33-2.747-3.466-2.994-6.407h2.925c0.123,1.981,0.843,3.476,2.159,4.48c1.315,1.007,2.948,1.509,4.898,1.509
		c0.712,0,1.446-0.076,2.205-0.231c0.758-0.155,1.463-0.418,2.112-0.79c0.65-0.371,1.185-0.843,1.603-1.416
		c0.418-0.572,0.627-1.276,0.627-2.112c0-0.712-0.147-1.308-0.441-1.787c-0.295-0.479-0.689-0.883-1.184-1.208
		c-0.496-0.324-1.062-0.595-1.695-0.812c-0.635-0.216-1.276-0.401-1.927-0.557l-3.761-0.836c-0.96-0.247-1.842-0.534-2.646-0.858
		c-0.806-0.325-1.509-0.728-2.112-1.208c-0.604-0.479-1.076-1.067-1.416-1.764c-0.342-0.696-0.511-1.556-0.511-2.577
		c0-1.207,0.271-2.244,0.812-3.11c0.541-0.866,1.245-1.563,2.112-2.09c0.866-0.526,1.834-0.912,2.901-1.161
		c1.068-0.247,2.128-0.371,3.181-0.371c1.207,0,2.329,0.155,3.366,0.465s1.95,0.789,2.739,1.438c0.79,0.65,1.416,1.456,1.881,2.415
		c0.464,0.96,0.727,2.089,0.789,3.389h-2.925C599.113,164.186,598.928,163.404,598.587,162.738z"/>
</g>
<g>
</g>
<g>
</g>
<g>
</g>
<g>
</g>
<g>
</g>
<g>
</g>
</svg>
